# xmcd
#
# Track frame offsets:
#	150
#	16520
#	32654
#	53334
#	68699
#	87564
#	107512
#	128959
#	147635
#	165697
#	182844
#	197498
#	215770
#	234905
#	248637
#	262844
#
# Disc length: 3788 seconds
#
# Revision: 7
# Processed by: cddbd v1.5.2PL0 Copyright (c) Steve Scherf et al.
# Submitted via: EasyCDDAExtractor 15.3.0.1
#
DISCID=d10eca10
DTITLE=Christina Aguilera - Keeps Gettin' Better - A Decade Of Hits
DYEAR=2008
DGENRE=Pop
TTITLE0=Genie In A Bottle
TTITLE1=What A Girl Wants
TTITLE2=I Turn To You
TTITLE3=Come On Over (All I Want Is You)
TTITLE4=Nobody Wants To Be Lonely (With Ricky Martin)
TTITLE5=Lady Marmalade (With Lil' Kim, Mya and P!nk)
TTITLE6=Dirrty (Featuring Redman)
TTITLE7=Fighter
TTITLE8=Beautiful
TTITLE9=Ain't No Other Man
TTITLE10=Candyman
TTITLE11=Hurt
TTITLE12=Genie 2.0
TTITLE13=Keeps Gettin' Better
TTITLE14=Dynamite
TTITLE15=You Are What You Are (Beautiful)
EXTD=YEAR: 2008
EXTT0=
EXTT1=
EXTT2=
EXTT3=
EXTT4=
EXTT5=
EXTT6=
EXTT7=
EXTT8=
EXTT9=
EXTT10=
EXTT11=
EXTT12=
EXTT13=
EXTT14=
EXTT15=
PLAYORDER=
